<svg width="30" height="30" viewBox="0 0 30 30" fill="none" xmlns="http://www.w3.org/2000/svg">
<g clip-path="url(#clip0_10_80)">
<path d="M26.7385 24.4525L23.4535 24.6705L22.8342 27.9395L19.6707 27.0083L17.9812 29.8653L15.3273 27.8999L12.7715 30L10.9408 27.2342L7.83222 28.3278L7.04822 25.0944L3.75539 25.0429L4.11211 21.7342L1.03489 20.5495L2.49314 17.5657L0 15.3863L2.37946 13.0841L0.772246 10.1796L3.78675 8.83635L3.26147 5.55145L6.55037 5.33351L7.16974 2.06446L10.3293 2.99564L12.0188 0.134725L14.6766 2.10408L17.2285 0L19.0592 2.76978L22.1678 1.67613L22.9518 4.90952L26.2446 4.95707L25.8879 8.26575L28.9651 9.45053L27.5108 12.4383L30 14.6137L27.6245 16.9159L29.2278 19.8243L26.2133 21.1636L26.7385 24.4525Z" fill="url(#paint0_linear_10_80)"/>
<path d="M3.88867 15.002C3.88867 21.2033 8.86319 26.2356 14.998 26.2356C21.1329 26.2356 26.1074 21.2072 26.1074 15.002C26.1074 8.79672 21.1329 3.77229 14.998 3.77229C8.86319 3.77229 3.88867 8.80068 3.88867 15.002Z" fill="url(#paint1_radial_10_80)"/>
<path style="mix-blend-mode:overlay" d="M16.6958 13.8449C13.8655 11.5229 12.7601 7.99234 14.2262 5.95166C15.6922 3.91098 19.1772 4.1408 22.0074 6.46282C24.8377 8.78484 25.9392 12.3194 24.4731 14.3561C23.0031 16.3968 19.5221 16.167 16.6919 13.8489L16.6958 13.8449Z" fill="url(#paint2_radial_10_80)"/>
<path style="mix-blend-mode:overlay" opacity="0.4" d="M5.1782 17.4825C5.55452 16.2422 7.45966 16.7534 9.43536 18.6316C11.4111 20.5098 12.7125 23.0379 12.3362 24.2821C11.9638 25.5224 10.0547 25.0112 8.07903 23.133C6.10333 21.2548 4.80188 18.7267 5.1782 17.4825Z" fill="url(#paint3_radial_10_80)"/>
</g>
<defs>
<linearGradient id="paint0_linear_10_80" x1="28.679" y1="-0.447761" x2="1.99701" y2="29.0486" gradientUnits="userSpaceOnUse">
<stop stop-color="#FFBA24"/>
<stop offset="1" stop-color="#FF5500"/>
</linearGradient>
<radialGradient id="paint1_radial_10_80" cx="0" cy="0" r="1" gradientUnits="userSpaceOnUse" gradientTransform="translate(17.5421 7.96064) rotate(180) scale(21.0937 21.3221)">
<stop stop-color="#FFF4C3"/>
<stop offset="0.16" stop-color="#FFE036"/>
<stop offset="1" stop-color="#FA761C"/>
</radialGradient>
<radialGradient id="paint2_radial_10_80" cx="0" cy="0" r="1" gradientUnits="userSpaceOnUse" gradientTransform="translate(57.0444 -43.2413) rotate(125.737) scale(4.5615 6.61259)">
<stop stop-color="white"/>
<stop offset="0.1" stop-color="white" stop-opacity="0.85"/>
<stop offset="0.29" stop-color="white" stop-opacity="0.59"/>
<stop offset="0.47" stop-color="white" stop-opacity="0.38"/>
<stop offset="0.63" stop-color="white" stop-opacity="0.22"/>
<stop offset="0.78" stop-color="white" stop-opacity="0.1"/>
<stop offset="0.91" stop-color="white" stop-opacity="0.03"/>
<stop offset="1" stop-color="white" stop-opacity="0"/>
</radialGradient>
<radialGradient id="paint3_radial_10_80" cx="0" cy="0" r="1" gradientUnits="userSpaceOnUse" gradientTransform="translate(296.63 298.809) rotate(-136.482) scale(4.9415 2.08838)">
<stop stop-color="white"/>
<stop offset="0.1" stop-color="white" stop-opacity="0.85"/>
<stop offset="0.29" stop-color="white" stop-opacity="0.59"/>
<stop offset="0.47" stop-color="white" stop-opacity="0.38"/>
<stop offset="0.63" stop-color="white" stop-opacity="0.22"/>
<stop offset="0.78" stop-color="white" stop-opacity="0.1"/>
<stop offset="0.91" stop-color="white" stop-opacity="0.03"/>
<stop offset="1" stop-color="white" stop-opacity="0"/>
</radialGradient>
<clipPath id="clip0_10_80">
<rect width="30" height="30" fill="white"/>
</clipPath>
</defs>
</svg>
