<svg width="30" height="30" viewBox="0 0 30 30" fill="none" xmlns="http://www.w3.org/2000/svg">
<path d="M23.7752 12.8797C23.4625 8.30313 19.6547 4.6875 15 4.6875C10.3453 4.6875 6.53746 8.30313 6.22476 12.8797C2.75896 13.0523 0 15.9155 0 19.4269C0 22.9383 2.93486 25.9807 6.55375 25.9807H23.4463C27.0651 25.9807 30 23.0458 30 19.4269C30 15.808 27.241 13.0523 23.7752 12.8797Z" fill="url(#paint0_radial_10_44)"/>
<path style="mix-blend-mode:overlay" d="M15 13.6973C12.5309 11.694 11.57 8.64841 12.8469 6.88945C14.127 5.13049 17.1661 5.32593 19.6352 7.32919C22.101 9.33245 23.0652 12.3813 21.785 14.137C20.5049 15.896 17.4658 15.6973 15 13.6973Z" fill="url(#paint1_radial_10_44)"/>
<path style="mix-blend-mode:overlay" opacity="0.4" d="M23.8209 19.6126C21.8828 18.0393 21.1238 15.6419 22.1303 14.2608C23.1368 12.8797 25.5245 13.0328 27.4626 14.6061C29.4007 16.1794 30.1564 18.5768 29.1531 19.9579C28.1466 21.3422 25.759 21.1859 23.8209 19.6126Z" fill="url(#paint2_radial_10_44)"/>
<path style="mix-blend-mode:overlay" opacity="0.2" d="M4.68413 19.8341C3.25417 17.6028 1.58967 16.5279 0.967521 17.4334C0.348628 18.339 1.00335 20.8829 2.43332 23.1175C3.86654 25.3487 5.52778 26.4237 6.14993 25.5181C6.77208 24.6093 6.1141 22.0686 4.68413 19.8341Z" fill="url(#paint3_radial_10_44)"/>
<defs>
<radialGradient id="paint0_radial_10_44" cx="0" cy="0" r="1" gradientUnits="userSpaceOnUse" gradientTransform="translate(18.785 9.18225) rotate(-180) scale(22.886 16.7068)">
<stop stop-color="white"/>
<stop offset="0.2" stop-color="#D5F3FF"/>
<stop offset="1" stop-color="#85BCF1"/>
</radialGradient>
<radialGradient id="paint1_radial_10_44" cx="0" cy="0" r="1" gradientUnits="userSpaceOnUse" gradientTransform="translate(49.7302 -34.9153) rotate(126.03) scale(3.94997 5.74541)">
<stop stop-color="white"/>
<stop offset="0.1" stop-color="white" stop-opacity="0.85"/>
<stop offset="0.29" stop-color="white" stop-opacity="0.59"/>
<stop offset="0.47" stop-color="white" stop-opacity="0.38"/>
<stop offset="0.63" stop-color="white" stop-opacity="0.22"/>
<stop offset="0.78" stop-color="white" stop-opacity="0.1"/>
<stop offset="0.91" stop-color="white" stop-opacity="0.03"/>
<stop offset="1" stop-color="white" stop-opacity="0"/>
</radialGradient>
<radialGradient id="paint2_radial_10_44" cx="0" cy="0" r="1" gradientUnits="userSpaceOnUse" gradientTransform="translate(58.3819 -28.7723) rotate(126.03) scale(3.10221 4.51231)">
<stop stop-color="white"/>
<stop offset="0.1" stop-color="white" stop-opacity="0.85"/>
<stop offset="0.29" stop-color="white" stop-opacity="0.59"/>
<stop offset="0.47" stop-color="white" stop-opacity="0.38"/>
<stop offset="0.63" stop-color="white" stop-opacity="0.22"/>
<stop offset="0.78" stop-color="white" stop-opacity="0.1"/>
<stop offset="0.91" stop-color="white" stop-opacity="0.03"/>
<stop offset="1" stop-color="white" stop-opacity="0"/>
</radialGradient>
<radialGradient id="paint3_radial_10_44" cx="0" cy="0" r="1" gradientUnits="userSpaceOnUse" gradientTransform="translate(3.55276 21.4489) rotate(-25.71) scale(1.58632 4.61619)">
<stop stop-color="white"/>
<stop offset="0.1" stop-color="white" stop-opacity="0.85"/>
<stop offset="0.29" stop-color="white" stop-opacity="0.59"/>
<stop offset="0.47" stop-color="white" stop-opacity="0.38"/>
<stop offset="0.63" stop-color="white" stop-opacity="0.22"/>
<stop offset="0.78" stop-color="white" stop-opacity="0.1"/>
<stop offset="0.91" stop-color="white" stop-opacity="0.03"/>
<stop offset="1" stop-color="white" stop-opacity="0"/>
</radialGradient>
</defs>
</svg>
