<svg width="30" height="30" viewBox="0 0 30 30" fill="none" xmlns="http://www.w3.org/2000/svg">
<path d="M28.0835 16.4632L26.1562 16.5932L25.7924 18.5266L23.9384 17.9762L22.9475 19.6689L21.3866 18.5045L19.8882 19.7464L18.8159 18.1089L16.989 18.7562L16.5302 16.8449L14.5974 16.8145L14.8065 14.8562L13.0013 14.1564L13.8564 12.3889L12.3932 11.1028L13.7885 9.73915L12.8465 8.02149L14.6164 7.22766L14.307 5.28319L16.2371 5.15319L16.6008 3.21979L18.4549 3.77021L19.4457 2.08021L21.0039 3.24468L22.505 2L23.5773 3.63745L25.4042 2.99021L25.863 4.90426L27.7958 4.93191L27.5868 6.89021L29.392 7.59L28.5369 9.35745L30 10.6436L28.6047 12.0072L29.5467 13.7249L27.7768 14.5187L28.0835 16.4632Z" fill="url(#paint0_linear_10_50)"/>
<path d="M14.6761 10.8732C14.6761 14.5436 17.5943 17.517 21.1966 17.517C24.7989 17.517 27.7171 14.5436 27.7171 10.8732C27.7171 7.20277 24.7989 4.22937 21.1966 4.22937C17.5943 4.22937 14.6761 7.20554 14.6761 10.8732Z" fill="url(#paint1_radial_10_50)"/>
<path style="mix-blend-mode:overlay" d="M22.1902 10.19C20.5289 8.8181 19.8801 6.72703 20.7406 5.52108C21.6011 4.31512 23.6479 4.45065 25.3093 5.82257C26.9706 7.19448 27.6167 9.28555 26.7561 10.4915C25.8956 11.7002 23.8488 11.5619 22.1902 10.19Z" fill="url(#paint2_radial_10_50)"/>
<path style="mix-blend-mode:overlay" opacity="0.4" d="M15.4335 12.3419C15.6534 11.6062 16.7718 11.9104 17.9337 13.0224C19.0928 14.1343 19.8556 15.6279 19.6357 16.3636C19.4158 17.0994 18.2974 16.7951 17.1356 15.6832C15.9764 14.5713 15.2136 13.0749 15.4335 12.3419Z" fill="url(#paint3_radial_10_50)"/>
<path d="M20.8165 12.8868C20.5559 9.00063 17.3826 5.93042 13.5034 5.93042C9.62426 5.93042 6.4509 9.00063 6.1903 12.8868C3.29926 13.0306 1 15.4647 1 18.4436C1 21.4225 3.44585 24.0087 6.46176 24.0087H20.5396C23.5556 24.0087 26.0014 21.5166 26.0014 18.4436C26.0014 15.3706 23.7021 13.0306 20.8138 12.884L20.8165 12.8868Z" fill="url(#paint4_radial_10_50)"/>
<path d="M20.8165 12.8868C20.5559 9.00063 17.3826 5.93042 13.5034 5.93042C9.62426 5.93042 6.4509 9.00063 6.1903 12.8868C3.29926 13.0306 1 15.4647 1 18.4436C1 21.4225 3.44585 24.0087 6.46176 24.0087H20.5396C23.5556 24.0087 26.0014 21.5166 26.0014 18.4436C26.0014 15.3706 23.7021 13.0306 20.8138 12.884L20.8165 12.8868Z" fill="url(#paint5_radial_10_50)"/>
<path style="mix-blend-mode:overlay" d="M13.5035 13.5783C11.4458 11.8772 10.645 9.29107 11.7091 7.79745C12.776 6.30384 15.3087 6.47256 17.3636 8.17086C19.4186 9.86915 20.2221 12.4609 19.1552 13.9517C18.0884 15.4453 15.5557 15.2766 13.5008 13.5783H13.5035Z" fill="url(#paint6_radial_10_50)"/>
<path style="mix-blend-mode:overlay" opacity="0.4" d="M20.8546 18.6013C19.2394 17.2653 18.6069 15.2323 19.4457 14.0568C20.2845 12.884 22.2743 13.014 23.8895 14.35C25.5047 15.686 26.1345 17.7217 25.2984 18.8945C24.4596 20.07 22.4698 19.9372 20.8546 18.6013Z" fill="url(#paint7_radial_10_50)"/>
<path style="mix-blend-mode:overlay" opacity="0.2" d="M4.90625 18.7894C3.71455 16.8947 2.32739 15.9819 1.8089 16.7509C1.29313 17.5198 1.83876 19.68 3.03047 21.5747C4.22489 23.4694 5.60933 24.3821 6.12782 23.616C6.64631 22.8443 6.09796 20.6868 4.90625 18.7894Z" fill="url(#paint8_radial_10_50)"/>
<path d="M7.401 27.4302C7.09153 27.9751 6.41017 28.1604 5.87539 27.8451C5.34062 27.5325 5.15874 26.8355 5.46821 26.2906C5.77767 25.7457 7.68331 24.6559 7.68331 24.6559C7.68331 24.6559 7.71046 26.8825 7.401 27.4274V27.4302Z" fill="url(#paint9_radial_10_50)"/>
<path style="mix-blend-mode:overlay" d="M5.50082 27.2421C5.32709 26.7802 5.43296 26.2962 5.73699 26.1606C6.04103 26.0223 6.4265 26.2851 6.59752 26.747C6.77125 27.2062 6.66538 27.693 6.36135 27.8285C6.05732 27.9668 5.67184 27.704 5.50082 27.2421Z" fill="url(#paint10_radial_10_50)"/>
<path d="M12.0701 27.4302C11.7606 27.9751 11.0792 28.1604 10.5445 27.8451C10.0097 27.5325 9.82781 26.8355 10.1373 26.2906C10.4467 25.7457 12.3524 24.6559 12.3524 24.6559C12.3524 24.6559 12.3795 26.8825 12.0701 27.4274V27.4302Z" fill="url(#paint11_radial_10_50)"/>
<path style="mix-blend-mode:overlay" d="M10.1671 27.2421C9.99335 26.7802 10.0992 26.2962 10.4033 26.1606C10.7073 26.0223 11.0928 26.2851 11.2638 26.747C11.4375 27.2062 11.3316 27.693 11.0303 27.8285C10.7263 27.9668 10.3408 27.704 10.1698 27.2421H10.1671Z" fill="url(#paint12_radial_10_50)"/>
<path d="M16.7364 27.4302C16.427 27.9751 15.7456 28.1604 15.2108 27.8451C14.6761 27.5325 14.4942 26.8355 14.8037 26.2906C15.1131 25.7457 17.0188 24.6559 17.0188 24.6559C17.0188 24.6559 17.0459 26.8825 16.7364 27.4274V27.4302Z" fill="url(#paint13_radial_10_50)"/>
<path style="mix-blend-mode:overlay" d="M14.8363 27.2421C14.6625 26.7802 14.7684 26.2962 15.0724 26.1606C15.3765 26.0223 15.7619 26.2851 15.933 26.747C16.1067 27.2062 16.0008 27.693 15.6995 27.8285C15.3955 27.9668 15.01 27.704 14.839 27.2421H14.8363Z" fill="url(#paint14_radial_10_50)"/>
<path d="M21.4028 27.4302C21.0934 27.9751 20.412 28.1604 19.8772 27.8451C19.3425 27.5325 19.1606 26.8355 19.47 26.2906C19.7795 25.7457 21.6851 24.6559 21.6851 24.6559C21.6851 24.6559 21.7123 26.8825 21.4028 27.4274V27.4302Z" fill="url(#paint15_radial_10_50)"/>
<path style="mix-blend-mode:overlay" d="M19.5027 27.2421C19.3289 26.7802 19.4348 26.2962 19.7388 26.1606C20.0429 26.0223 20.4283 26.2851 20.5993 26.747C20.7731 27.2062 20.6672 27.693 20.3632 27.8285C20.0591 27.9668 19.6737 27.704 19.5027 27.2421Z" fill="url(#paint16_radial_10_50)"/>
<defs>
<linearGradient id="paint0_linear_10_50" x1="29.2237" y1="1.73447" x2="13.4278" y2="19.0566" gradientUnits="userSpaceOnUse">
<stop stop-color="#FFBA24"/>
<stop offset="1" stop-color="#FF5500"/>
</linearGradient>
<radialGradient id="paint1_radial_10_50" cx="0" cy="0" r="1" gradientUnits="userSpaceOnUse" gradientTransform="translate(22.6869 6.70767) rotate(-180) scale(12.3785 12.6128)">
<stop stop-color="#FFF4C3"/>
<stop offset="0.16" stop-color="#FFE036"/>
<stop offset="1" stop-color="#FA761C"/>
</radialGradient>
<radialGradient id="paint2_radial_10_50" cx="0" cy="0" r="1" gradientUnits="userSpaceOnUse" gradientTransform="translate(54.706 -36.1959) rotate(125.521) scale(2.68816 3.88693)">
<stop stop-color="white"/>
<stop offset="0.1" stop-color="white" stop-opacity="0.85"/>
<stop offset="0.29" stop-color="white" stop-opacity="0.59"/>
<stop offset="0.47" stop-color="white" stop-opacity="0.38"/>
<stop offset="0.63" stop-color="white" stop-opacity="0.22"/>
<stop offset="0.78" stop-color="white" stop-opacity="0.1"/>
<stop offset="0.91" stop-color="white" stop-opacity="0.03"/>
<stop offset="1" stop-color="white" stop-opacity="0"/>
</radialGradient>
<radialGradient id="paint3_radial_10_50" cx="0" cy="0" r="1" gradientUnits="userSpaceOnUse" gradientTransform="translate(190.235 182.418) rotate(-136.254) scale(2.91024 1.23039)">
<stop stop-color="white"/>
<stop offset="0.1" stop-color="white" stop-opacity="0.85"/>
<stop offset="0.29" stop-color="white" stop-opacity="0.59"/>
<stop offset="0.47" stop-color="white" stop-opacity="0.38"/>
<stop offset="0.63" stop-color="white" stop-opacity="0.22"/>
<stop offset="0.78" stop-color="white" stop-opacity="0.1"/>
<stop offset="0.91" stop-color="white" stop-opacity="0.03"/>
<stop offset="1" stop-color="white" stop-opacity="0"/>
</radialGradient>
<radialGradient id="paint4_radial_10_50" cx="0" cy="0" r="1" gradientUnits="userSpaceOnUse" gradientTransform="translate(16.6551 9.74393) rotate(-180) scale(19.0727 14.1865)">
<stop stop-color="white"/>
<stop offset="0.2" stop-color="#D5F3FF"/>
<stop offset="1" stop-color="#85BCF1"/>
</radialGradient>
<radialGradient id="paint5_radial_10_50" cx="0" cy="0" r="1" gradientUnits="userSpaceOnUse" gradientTransform="translate(19.1118 10.8455) scale(16.749 17.066)">
<stop stop-color="#FFE036"/>
<stop offset="0.08" stop-color="#FECB30" stop-opacity="0.81"/>
<stop offset="0.18" stop-color="#FCB52B" stop-opacity="0.6"/>
<stop offset="0.28" stop-color="#FCA126" stop-opacity="0.41"/>
<stop offset="0.38" stop-color="#FB9122" stop-opacity="0.26"/>
<stop offset="0.48" stop-color="#FA851F" stop-opacity="0.15"/>
<stop offset="0.58" stop-color="#FA7C1D" stop-opacity="0.07"/>
<stop offset="0.68" stop-color="#FA771C" stop-opacity="0.02"/>
<stop offset="0.77" stop-color="#FA761C" stop-opacity="0"/>
</radialGradient>
<radialGradient id="paint6_radial_10_50" cx="0" cy="0" r="1" gradientUnits="userSpaceOnUse" gradientTransform="translate(46.2215 -33.0933) rotate(125.521) scale(3.33269 4.81888)">
<stop stop-color="white"/>
<stop offset="0.1" stop-color="white" stop-opacity="0.85"/>
<stop offset="0.29" stop-color="white" stop-opacity="0.59"/>
<stop offset="0.47" stop-color="white" stop-opacity="0.38"/>
<stop offset="0.63" stop-color="white" stop-opacity="0.22"/>
<stop offset="0.78" stop-color="white" stop-opacity="0.1"/>
<stop offset="0.91" stop-color="white" stop-opacity="0.03"/>
<stop offset="1" stop-color="white" stop-opacity="0"/>
</radialGradient>
<radialGradient id="paint7_radial_10_50" cx="0" cy="0" r="1" gradientUnits="userSpaceOnUse" gradientTransform="translate(53.4316 -27.877) rotate(125.521) scale(2.61742 3.78464)">
<stop stop-color="white"/>
<stop offset="0.1" stop-color="white" stop-opacity="0.85"/>
<stop offset="0.29" stop-color="white" stop-opacity="0.59"/>
<stop offset="0.47" stop-color="white" stop-opacity="0.38"/>
<stop offset="0.63" stop-color="white" stop-opacity="0.22"/>
<stop offset="0.78" stop-color="white" stop-opacity="0.1"/>
<stop offset="0.91" stop-color="white" stop-opacity="0.03"/>
<stop offset="1" stop-color="white" stop-opacity="0"/>
</radialGradient>
<radialGradient id="paint8_radial_10_50" cx="0" cy="0" r="1" gradientUnits="userSpaceOnUse" gradientTransform="translate(3.96116 20.1676) rotate(-26.1322) scale(1.32675 3.90582)">
<stop stop-color="white"/>
<stop offset="0.1" stop-color="white" stop-opacity="0.85"/>
<stop offset="0.29" stop-color="white" stop-opacity="0.59"/>
<stop offset="0.47" stop-color="white" stop-opacity="0.38"/>
<stop offset="0.63" stop-color="white" stop-opacity="0.22"/>
<stop offset="0.78" stop-color="white" stop-opacity="0.1"/>
<stop offset="0.91" stop-color="white" stop-opacity="0.03"/>
<stop offset="1" stop-color="white" stop-opacity="0"/>
</radialGradient>
<radialGradient id="paint9_radial_10_50" cx="0" cy="0" r="1" gradientUnits="userSpaceOnUse" gradientTransform="translate(5.90558 27.1732) rotate(30.4672) scale(2.69752 2.72256)">
<stop stop-color="#D0F2FF"/>
<stop offset="0.2" stop-color="#D5F3FF"/>
<stop offset="1" stop-color="#85BCF1"/>
</radialGradient>
<radialGradient id="paint10_radial_10_50" cx="0" cy="0" r="1" gradientUnits="userSpaceOnUse" gradientTransform="translate(52.2214 5.49934) rotate(155.639) scale(0.603582 0.888949)">
<stop stop-color="white"/>
<stop offset="0.1" stop-color="white" stop-opacity="0.85"/>
<stop offset="0.29" stop-color="white" stop-opacity="0.59"/>
<stop offset="0.47" stop-color="white" stop-opacity="0.38"/>
<stop offset="0.63" stop-color="white" stop-opacity="0.22"/>
<stop offset="0.78" stop-color="white" stop-opacity="0.1"/>
<stop offset="0.91" stop-color="white" stop-opacity="0.03"/>
<stop offset="1" stop-color="white" stop-opacity="0"/>
</radialGradient>
<radialGradient id="paint11_radial_10_50" cx="0" cy="0" r="1" gradientUnits="userSpaceOnUse" gradientTransform="translate(10.5733 27.1724) rotate(30.4672) scale(2.69752 2.72256)">
<stop stop-color="#D0F2FF"/>
<stop offset="0.2" stop-color="#D5F3FF"/>
<stop offset="1" stop-color="#85BCF1"/>
</radialGradient>
<radialGradient id="paint12_radial_10_50" cx="0" cy="0" r="1" gradientUnits="userSpaceOnUse" gradientTransform="translate(56.9896 5.45559) rotate(155.639) scale(0.603582 0.888949)">
<stop stop-color="white"/>
<stop offset="0.1" stop-color="white" stop-opacity="0.85"/>
<stop offset="0.29" stop-color="white" stop-opacity="0.59"/>
<stop offset="0.47" stop-color="white" stop-opacity="0.38"/>
<stop offset="0.63" stop-color="white" stop-opacity="0.22"/>
<stop offset="0.78" stop-color="white" stop-opacity="0.1"/>
<stop offset="0.91" stop-color="white" stop-opacity="0.03"/>
<stop offset="1" stop-color="white" stop-opacity="0"/>
</radialGradient>
<radialGradient id="paint13_radial_10_50" cx="0" cy="0" r="1" gradientUnits="userSpaceOnUse" gradientTransform="translate(15.2411 27.1717) rotate(30.4672) scale(2.69752 2.72256)">
<stop stop-color="#D0F2FF"/>
<stop offset="0.2" stop-color="#D5F3FF"/>
<stop offset="1" stop-color="#85BCF1"/>
</radialGradient>
<radialGradient id="paint14_radial_10_50" cx="0" cy="0" r="1" gradientUnits="userSpaceOnUse" gradientTransform="translate(61.7557 5.40659) rotate(155.639) scale(0.603582 0.888949)">
<stop stop-color="white"/>
<stop offset="0.1" stop-color="white" stop-opacity="0.85"/>
<stop offset="0.29" stop-color="white" stop-opacity="0.59"/>
<stop offset="0.47" stop-color="white" stop-opacity="0.38"/>
<stop offset="0.63" stop-color="white" stop-opacity="0.22"/>
<stop offset="0.78" stop-color="white" stop-opacity="0.1"/>
<stop offset="0.91" stop-color="white" stop-opacity="0.03"/>
<stop offset="1" stop-color="white" stop-opacity="0"/>
</radialGradient>
<radialGradient id="paint15_radial_10_50" cx="0" cy="0" r="1" gradientUnits="userSpaceOnUse" gradientTransform="translate(19.9075 27.1733) rotate(30.4672) scale(2.69752 2.72256)">
<stop stop-color="#D0F2FF"/>
<stop offset="0.2" stop-color="#D5F3FF"/>
<stop offset="1" stop-color="#85BCF1"/>
</radialGradient>
<radialGradient id="paint16_radial_10_50" cx="0" cy="0" r="1" gradientUnits="userSpaceOnUse" gradientTransform="translate(66.524 5.36285) rotate(155.639) scale(0.603581 0.888949)">
<stop stop-color="white"/>
<stop offset="0.1" stop-color="white" stop-opacity="0.85"/>
<stop offset="0.29" stop-color="white" stop-opacity="0.59"/>
<stop offset="0.47" stop-color="white" stop-opacity="0.38"/>
<stop offset="0.63" stop-color="white" stop-opacity="0.22"/>
<stop offset="0.78" stop-color="white" stop-opacity="0.1"/>
<stop offset="0.91" stop-color="white" stop-opacity="0.03"/>
<stop offset="1" stop-color="white" stop-opacity="0"/>
</radialGradient>
</defs>
</svg>
